<svg xmlns="http://www.w3.org/2000/svg" width="153.254" height="129.096" viewBox="0 0 153.254 129.096">
  <g id="facebook" transform="translate(-112 -145.904)">
    <path id="Path_2" data-name="Path 2" d="M131.537,214.976H146.8v25.642" transform="translate(-4.777 7)" fill="none" stroke="#2962ff" stroke-width="8"/>
    <path id="Path_3" data-name="Path 3" d="M167.087,214.33C183.54,184.6,181.6,173.715,182.814,166.7s11.372-7.743,14.517-4.6,9.678,30.487,6.291,44.036" transform="translate(-3.087 -10.33)" fill="none" stroke="#2962ff" stroke-width="8"/>
    <path id="Path_4" data-name="Path 4" d="M202.261,199.543H247s7.441.557,7.254,10.08-16.121,11.16-16.121,11.16h-4.421" transform="translate(7 -4.201)" fill="none" stroke="#2962ff" stroke-width="8"/>
    <path id="Path_5" data-name="Path 5" d="M236.6,221.618s1.586,5.551-2.17,7.68-12.688,1.836-12.688,1.836" transform="translate(8 2.534)" fill="none" stroke="#2962ff" stroke-width="8"/>
    <path id="Path_7" data-name="Path 7" d="M232.754,221.618s-.971,5.451-3.755,7.028-53.95.742-53.95.742" transform="translate(-10 39)" fill="none" stroke="#2962ff" stroke-width="8"/>
    <path id="Path_12" data-name="Path 12" d="M236.6,221.618s1.586,5.551-2.17,7.68-12.688,1.836-12.688,1.836" transform="translate(1 19.534)" fill="none" stroke="#2962ff" stroke-width="8"/>
    <g id="Rectangle_3" data-name="Rectangle 3" transform="translate(112 205)" fill="none" stroke="#2962ff" stroke-width="8">
      <rect width="47" height="70" stroke="none"/>
      <rect x="4" y="4" width="39" height="62" fill="none"/>
    </g>
  </g>
</svg>
