<svg xmlns="http://www.w3.org/2000/svg" width="159.492" height="159.49" viewBox="0 0 159.492 159.49">
  <g id="whats" transform="translate(-338.5 -138.99)">
    <path id="Intersection_1" data-name="Intersection 1" d="M75.748,0a75.745,75.745,0,0,1,0,151.49c-21.62.073-39.372-11.4-39.372-11.4l-33.2,9.291,9.712-32.5S-.22,101.859,0,75.745A75.745,75.745,0,0,1,75.748,0Z" transform="translate(342.5 142.99)" fill="none" stroke="#2962ff" stroke-width="8"/>
    <path id="Path_9" data-name="Path 9" d="M384.853,181.052s-7.536,3.864-10.048,11.593,2.9,30.626,8.5,39.031,20.385,20.675,28.984,25.119,29.177,8.7,35.167,6.57,5.41-4.058,8.115-8.5,2.705-11.883-1.546-13.912-16.038-5.507-20.482-3.478-4.734,8.115-10.048,8.115-21.641-14.685-26.278-20.1-3.478-5.217-3.478-9.661,6.087-10.434,6.956-15.071-2.995-17.68-6.956-19.709S384.853,181.052,384.853,181.052Z" transform="translate(2.327 -4.16)" fill="none" stroke="#2962ff" stroke-width="8"/>
  </g>
</svg>
